# xmcd CD database file generated by MAGIX-FreeDB-MP3_deluxe_17 v3.0beta1
#
# Track frame offsets:
#	150
#	20936
#	39435
#	60267
#	76784
#	115879
#	153617
#
# Disc length: 2486
#
# Revision: 8
# Processed by: cddbd v1.5.2PL0 Copyright (c) Steve Scherf et al.
# Submitted via: MAGIX-FreeDB-MP3_deluxe_17 v3.0beta1
#
DISCID=4e09b407
DTITLE=John Coltrane - Both Directions at Once: The Lost Album
DYEAR=1963
DGENRE=Jazz
TTITLE0=Vilia (Take 5)
TTITLE1=Impressions (Take 1)
TTITLE2=Impressions (Take 2)
TTITLE3=Impressions (Take 4)
TTITLE4=Untitled Original 11386 (Take 2)
TTITLE5=Untitled Original 11386 (Take 5)
TTITLE6=One Up, One Down (Take 6)
EXTD=
EXTT0=
EXTT1=
EXTT2=
EXTT3=
EXTT4=
EXTT5=
EXTT6=
PLAYORDER=
